<svg xmlns="http://www.w3.org/2000/svg" width="113" height="168" viewBox="0 0 113 168"><g fill="none" fill-rule="evenodd"><path fill="#0A213C" d="M13.508 134.175l26.547 15.919.882 5.01 15.214 9.288 16.457-7.1v-7.198l28.715-17.386.936-22.25 2.326-1.698 1.397-13.323 4.745-2.162V78.598l-9.404-4.511.936-20.346L88.214 29.62 76.848 13.895 67.095 3.509h-4.978c-2.388 3.718-3.583 5.858-3.583 6.422 0 .563-2.872 4.257-8.615 11.082L30.238 38.562 11.519 52.365v22.68l-8.745 3.553v14.677l4.336 2.162L8.3 108.76l3.22 1.698v21.187l1.988 2.53z"/><g fill="#FFF" fill-rule="nonzero"><path d="M68.763 100.5H95.65l.777-13.5H66.293zm-51.416 0h26.891L46.707 87H16.573z"/><path d="M109.2 75.076l.09-1.653h-5.315v-21.07l-.665-1.192C74.873 0 66.694 0 64.01 0c-2.715 0-5.953 1.695-6.903 6.46-1.752 8.802-27.873 30.34-45.86 42.82l-2.214 1.538v22.605H3.695l.1 1.653H0v21.569h5.02l.874 15.4h3.138v22.52L37.907 151.7v5.266L56.505 168l18.604-11.034V151.7l28.873-17.135v-22.52h3.124l.873-15.4H113v-21.57h-3.8zM14.062 53.57S59.084 22.34 62.04 7.496C65-7.336 98.94 53.727 98.94 53.727v19.77h-7.944v-15.38L56.512 37.635l-34.49 20.481-.013 15.379h-7.946V53.57zm84.885 78.008l-28.874 17.136v5.265l-13.569 8.046-13.564-8.046v-5.266l-28.878-17.135V111.47h7.958v15.388l20.92 12.415v-1.402l13.564-8.05 13.569 8.05v1.404l20.922-12.417V111.47h7.952v20.107zm-56.176-6.593c.458-1.707.91-3.42 1.369-5.129a45.617 45.617 0 0 0 24.728 0c.46 1.71.919 3.422 1.375 5.13a50.687 50.687 0 0 1-27.472 0zm65.196-33.515h-4.735l-.874 15.402H62.527l-3.394-18.8H53.87l-3.394 18.8H10.642L9.77 91.47H5.035V80.252h4.107l-.099-1.654H55.59l-.395 2.206h2.627l-.396-2.206h46.54l-.088 1.654h4.092V91.47h-.001z"/></g></g></svg>