<svg xmlns="http://www.w3.org/2000/svg" width="129" height="26" viewBox="0 0 129 26"><g fill="#FFF" fill-rule="evenodd"><path d="M18.683 23.161H.079L23.161.08v18.604h2.56v4.478h-2.56v2.56h-4.478v-2.56zm-7.791-4.478h7.79v-7.791l-7.79 7.79zM0 19.877V0h19.877l-4.501 4.501H4.501v10.875z"/><path opacity=".495" d="M13.045 6.832l-6.213 6.213V6.832h6.213z"/><path d="M41.42 11.712a1.836 1.836 0 0 0-.678-.516 2.256 2.256 0 0 0-.93-.18 2.34 2.34 0 0 0-1.758.774c-.22.244-.392.534-.516.87a3.13 3.13 0 0 0-.186 1.092c0 .4.062.766.186 1.098.124.332.294.62.51.864.216.244.47.434.762.57.292.136.606.204.942.204.384 0 .724-.08 1.02-.24.296-.16.54-.384.732-.672l1.56 1.164c-.36.504-.816.876-1.368 1.116-.552.24-1.12.36-1.704.36a5.234 5.234 0 0 1-1.836-.312 4.203 4.203 0 0 1-1.452-.894 4.053 4.053 0 0 1-.954-1.41c-.228-.552-.342-1.168-.342-1.848 0-.68.114-1.296.342-1.848a4.053 4.053 0 0 1 .954-1.41 4.203 4.203 0 0 1 1.452-.894 5.234 5.234 0 0 1 1.836-.312c.24 0 .49.022.75.066.26.044.516.114.768.21.252.096.494.224.726.384.232.16.44.356.624.588l-1.44 1.176zm3.964-2.208h1.872v3.168h3.636V9.504h1.872V18h-1.872v-3.672h-3.636V18h-1.872V9.504zm13.204 0h1.548L63.832 18H61.72l-.732-1.8h-3.3L56.98 18h-2.064l3.672-8.496zm.72 2.472l-1.032 2.64h2.076l-1.044-2.64zm6.676-2.472h3.288c.432 0 .842.042 1.23.126.388.084.728.224 1.02.42.292.196.524.46.696.792.172.332.258.746.258 1.242 0 .6-.156 1.11-.468 1.53-.312.42-.768.686-1.368.798L72.8 18h-2.244l-1.776-3.396h-.924V18h-1.872V9.504zm1.872 3.516h1.104c.168 0 .346-.006.534-.018.188-.012.358-.048.51-.108a.882.882 0 0 0 .378-.282c.1-.128.15-.308.15-.54 0-.216-.044-.388-.132-.516a.88.88 0 0 0-.336-.294 1.49 1.49 0 0 0-.468-.138 3.817 3.817 0 0 0-.516-.036h-1.224v1.932zm7.276-3.516h1.872v6.768h3.468V18h-5.34V9.504zm7.648 0h1.872V18H82.78V9.504zm4.948 0H93.5v1.728h-3.9v1.584h3.684v1.728H89.6v1.728h4.116V18h-5.988V9.504zm13.712 0h5.7v1.728h-3.828v1.728h3.54v1.728h-3.54V18h-1.872V9.504zm7.888 4.248c0-.68.114-1.296.342-1.848a4.053 4.053 0 0 1 .954-1.41 4.203 4.203 0 0 1 1.452-.894 5.234 5.234 0 0 1 1.836-.312c.664 0 1.276.104 1.836.312.56.208 1.044.506 1.452.894.408.388.726.858.954 1.41.228.552.342 1.168.342 1.848 0 .68-.114 1.296-.342 1.848a4.053 4.053 0 0 1-.954 1.41 4.203 4.203 0 0 1-1.452.894 5.234 5.234 0 0 1-1.836.312 5.234 5.234 0 0 1-1.836-.312 4.203 4.203 0 0 1-1.452-.894 4.053 4.053 0 0 1-.954-1.41c-.228-.552-.342-1.168-.342-1.848zm1.944 0c0 .4.062.766.186 1.098a2.437 2.437 0 0 0 1.368 1.434 2.78 2.78 0 0 0 1.086.204c.4 0 .762-.068 1.086-.204a2.437 2.437 0 0 0 1.368-1.434c.124-.332.186-.698.186-1.098a3.13 3.13 0 0 0-.186-1.092 2.504 2.504 0 0 0-.534-.87 2.437 2.437 0 0 0-.834-.57 2.78 2.78 0 0 0-1.086-.204c-.4 0-.762.068-1.086.204a2.437 2.437 0 0 0-.834.57c-.232.244-.41.534-.534.87a3.13 3.13 0 0 0-.186 1.092zm11.908-.192l-2.808-4.056h2.352l1.812 2.976 1.74-2.976h2.268l-2.748 4.02L128.868 18h-2.352l-2.076-3.42-2.016 3.42h-2.22l2.976-4.44z"/></g></svg>