<svg xmlns="http://www.w3.org/2000/svg" width="116" height="26" viewBox="0 0 116 26"><g fill="#FFF" fill-rule="evenodd"><path d="M18.683 23.161H.079L23.161.08v18.604h2.56v4.478h-2.56v2.56h-4.478v-2.56zm-7.791-4.478h7.79v-7.791l-7.79 7.79zM0 19.877V0h19.877l-4.501 4.501H4.501v10.875z"/><path opacity=".495" d="M13.045 6.832l-6.213 6.213V6.832h6.213z"/><path d="M41.56 9.616a2.448 2.448 0 0 0-.904-.688c-.357-.16-.77-.24-1.24-.24s-.904.09-1.304.272a3.12 3.12 0 0 0-1.04.76 3.542 3.542 0 0 0-.688 1.16 4.173 4.173 0 0 0-.248 1.456c0 .533.083 1.021.248 1.464.165.443.392.827.68 1.152.288.325.627.579 1.016.76.39.181.808.272 1.256.272a2.82 2.82 0 0 0 1.36-.32c.395-.213.72-.512.976-.896l2.08 1.552a4.331 4.331 0 0 1-1.824 1.488c-.736.32-1.493.48-2.272.48a6.979 6.979 0 0 1-2.448-.416 5.604 5.604 0 0 1-1.936-1.192A5.404 5.404 0 0 1 34 14.8c-.304-.736-.456-1.557-.456-2.464s.152-1.728.456-2.464a5.404 5.404 0 0 1 1.272-1.88A5.604 5.604 0 0 1 37.208 6.8a6.979 6.979 0 0 1 2.448-.416c.32 0 .653.03 1 .088.347.059.688.152 1.024.28.336.128.659.299.968.512.31.213.587.475.832.784l-1.92 1.568zm5.324-3.712v5.376h.032c.054-.15.144-.299.272-.448a2.11 2.11 0 0 1 .464-.4c.182-.117.395-.213.64-.288.246-.075.512-.112.8-.112.608 0 1.1.093 1.472.28.374.187.664.445.872.776.208.33.35.72.424 1.168.075.448.112.933.112 1.456V18h-2.4v-3.808c0-.224-.008-.456-.024-.696a2.196 2.196 0 0 0-.144-.664 1.146 1.146 0 0 0-.368-.496c-.165-.128-.402-.192-.712-.192-.309 0-.56.056-.752.168a1.145 1.145 0 0 0-.44.448 1.831 1.831 0 0 0-.2.632 5.45 5.45 0 0 0-.048.736V18h-2.4V5.904h2.4zm11.341 11.12h-.032a2.257 2.257 0 0 1-1.064.896c-.443.181-.91.272-1.4.272a3.61 3.61 0 0 1-1.048-.152 2.645 2.645 0 0 1-.888-.456 2.202 2.202 0 0 1-.608-.752 2.297 2.297 0 0 1-.224-1.04c0-.448.083-.827.248-1.136.165-.31.39-.565.672-.768.283-.203.605-.36.968-.472a7.066 7.066 0 0 1 1.128-.248c.39-.053.779-.085 1.168-.096.39-.01.75-.016 1.08-.016 0-.427-.152-.765-.456-1.016a1.644 1.644 0 0 0-1.08-.376 2.35 2.35 0 0 0-1.08.248 2.95 2.95 0 0 0-.872.68l-1.28-1.312c.448-.416.97-.728 1.568-.936a5.604 5.604 0 0 1 1.856-.312c.704 0 1.283.088 1.736.264a2.53 2.53 0 0 1 1.088.776c.272.341.461.76.568 1.256.107.496.16 1.07.16 1.72V18h-2.208v-.976zm-.592-2.432c-.181 0-.408.008-.68.024a3.446 3.446 0 0 0-.784.136 1.76 1.76 0 0 0-.64.336c-.176.15-.264.357-.264.624 0 .288.123.501.368.64s.501.208.768.208c.235 0 .461-.032.68-.096.219-.064.413-.155.584-.272.17-.117.307-.267.408-.448.101-.181.152-.395.152-.64v-.512h-.592zm3.98-4.368h2.4v1.248h.032c.256-.48.56-.84.912-1.08.352-.24.795-.36 1.328-.36.14 0 .278.005.416.016.14.01.267.032.384.064v2.192a3.263 3.263 0 0 0-1.024-.16c-.458 0-.82.064-1.088.192a1.445 1.445 0 0 0-.616.536c-.144.23-.237.504-.28.824a8.14 8.14 0 0 0-.064 1.056V18h-2.4v-7.776zm6.22-4.32h2.4V18h-2.4V5.904zm3.837 4.32h2.4V18h-2.4v-7.776zm-.192-2.448c0-.384.136-.712.408-.984.272-.272.6-.408.984-.408s.712.136.984.408c.272.272.408.6.408.984s-.136.712-.408.984c-.272.272-.6.408-.984.408s-.712-.136-.984-.408a1.341 1.341 0 0 1-.408-.984zm11.357 8.88c-.384.49-.87.87-1.456 1.136-.587.267-1.195.4-1.824.4-.597 0-1.16-.096-1.688-.288a4.063 4.063 0 0 1-1.376-.824 3.867 3.867 0 0 1-.92-1.288 4.074 4.074 0 0 1-.336-1.68c0-.619.112-1.179.336-1.68.224-.501.53-.93.92-1.288.39-.357.848-.632 1.376-.824a4.901 4.901 0 0 1 1.688-.288 3.84 3.84 0 0 1 1.512.288c.453.192.837.467 1.152.824.315.357.557.787.728 1.288.17.501.256 1.061.256 1.68v.752h-5.568c.096.459.304.824.624 1.096.32.272.715.408 1.184.408.395 0 .728-.088 1-.264.272-.176.51-.403.712-.68l1.68 1.232zm-2.032-3.424a1.39 1.39 0 0 0-.4-1.04c-.277-.288-.635-.432-1.072-.432-.267 0-.501.043-.704.128a1.764 1.764 0 0 0-.52.328 1.438 1.438 0 0 0-.336.464c-.08.176-.125.36-.136.552h3.168zm8.345-6.56h7.6v2.304h-5.104v2.304h4.72v2.304h-4.72V18h-2.496V6.672zm8.476 7.44c0-.619.112-1.179.336-1.68.224-.501.531-.93.92-1.288.39-.357.848-.632 1.376-.824a4.901 4.901 0 0 1 1.688-.288c.598 0 1.16.096 1.688.288.528.192.987.467 1.376.824.39.357.696.787.92 1.288.224.501.336 1.061.336 1.68s-.112 1.179-.336 1.68c-.224.501-.53.93-.92 1.288a4.065 4.065 0 0 1-1.376.824 4.901 4.901 0 0 1-1.688.288c-.597 0-1.16-.096-1.688-.288a4.063 4.063 0 0 1-1.376-.824 3.867 3.867 0 0 1-.92-1.288 4.074 4.074 0 0 1-.336-1.68zm2.4 0c0 .587.168 1.061.504 1.424.336.363.808.544 1.416.544.608 0 1.08-.181 1.416-.544.336-.363.504-.837.504-1.424s-.168-1.061-.504-1.424c-.336-.363-.808-.544-1.416-.544-.608 0-1.08.181-1.416.544-.336.363-.504.837-.504 1.424zm9.42-.272l-2.591-3.616h2.832l1.376 2.112 1.328-2.112h2.672l-2.528 3.616 2.992 4.16h-2.832l-1.696-2.592L109.173 18h-2.8l3.072-4.16z"/></g></svg>