<svg xmlns="http://www.w3.org/2000/svg" width="35" height="35" viewBox="0 0 35 35"><path fill="#0A213C" fill-rule="evenodd" d="M8.527 3.3c-2.62 1.554-4.695 3.664-6.228 6.328C.766 12.293 0 15.203 0 18.358c0 3.79 1.09 7.197 3.27 10.224 2.18 3.027 4.996 5.122 8.449 6.284.402.076.7.023.893-.158a.892.892 0 0 0 .29-.68l-.011-1.234c-.008-.762-.012-1.43-.012-2.004l-.513.09c-.327.061-.74.087-1.239.08a9.401 9.401 0 0 1-1.551-.159 3.45 3.45 0 0 1-1.496-.679 2.87 2.87 0 0 1-.982-1.393l-.223-.52c-.149-.348-.383-.733-.703-1.155-.32-.423-.644-.71-.971-.86l-.156-.114a1.641 1.641 0 0 1-.29-.272 1.25 1.25 0 0 1-.201-.317c-.045-.106-.008-.192.111-.26.12-.068.335-.102.647-.102l.447.068c.298.06.666.241 1.105.543.439.302.8.695 1.082 1.178.343.619.756 1.09 1.24 1.415.483.325.97.487 1.461.487a6.23 6.23 0 0 0 1.273-.113 4.383 4.383 0 0 0 1.004-.34c.149-1.011.513-1.789 1.094-2.332a15.09 15.09 0 0 1-2.288-.408 9.045 9.045 0 0 1-2.098-.883 6.034 6.034 0 0 1-1.797-1.517c-.476-.604-.867-1.397-1.172-2.378-.305-.981-.458-2.114-.458-3.397 0-1.796.588-3.351 1.764-4.665-.55-1.373-.491-2.913.178-4.62.417-.135 1.05-.033 1.898.306.848.34 1.47.63 1.863.872.395.242.711.446.95.612a15.63 15.63 0 0 1 4.285-.589c1.473 0 2.902.196 4.286.589l.848-.544c.58-.362 1.265-.694 2.053-.996.79-.302 1.392-.385 1.808-.25.67 1.707.73 3.247.179 4.62 1.176 1.314 1.763 2.869 1.763 4.665 0 1.283-.152 2.42-.457 3.408-.305.99-.7 1.782-1.183 2.378a6.26 6.26 0 0 1-1.808 1.506 9.045 9.045 0 0 1-2.099.883 15.09 15.09 0 0 1-2.287.408c.773.679 1.16 1.75 1.16 3.215 0 .921-.003 1.936-.01 3.046l-.012 1.732c0 .272.097.498.29.68.194.18.491.234.893.158 3.452-1.162 6.269-3.257 8.449-6.284 2.18-3.027 3.27-6.435 3.27-10.224 0-3.155-.767-6.065-2.3-8.73-1.532-2.664-3.612-4.774-6.238-6.329C23.12 1.744 20.253.967 17.143.967c-3.11 0-5.982.777-8.616 2.332zM6.496 25.943c.044-.106-.008-.196-.157-.272-.149-.045-.245-.03-.29.046-.045.105.008.196.156.271.134.09.231.076.29-.045zm.691.77c.105-.076.09-.196-.044-.362-.149-.136-.268-.159-.357-.068-.104.075-.09.196.044.362.15.151.268.174.357.068zm.67 1.019c.134-.106.134-.25 0-.43-.119-.197-.245-.242-.38-.136-.133.075-.133.211 0 .407.135.197.261.25.38.159zm.938.951c.119-.12.089-.264-.09-.43-.178-.181-.327-.204-.446-.068-.134.12-.104.264.09.43.178.181.327.204.446.068zm1.272.566c.045-.166-.052-.287-.29-.362-.223-.06-.365-.008-.424.158-.06.166.037.28.29.34.223.09.364.045.424-.136zm1.406.113c0-.196-.126-.279-.38-.249-.237 0-.356.083-.356.25 0 .196.126.279.38.249.237 0 .356-.083.356-.25zm1.295-.226c-.03-.166-.164-.234-.402-.204-.238.045-.342.159-.312.34.03.181.163.241.401.181.238-.06.343-.166.313-.317z"/></svg>