<svg xmlns="http://www.w3.org/2000/svg" width="35" height="35" viewBox="0 0 35 35"><path fill="#0A213C" fill-rule="evenodd" d="M5.29 29.121h5.156V13.406H5.29V29.12zM10.781 8.56c-.015-.785-.282-1.434-.803-1.948-.521-.513-1.213-.77-2.076-.77s-1.566.257-2.11.77c-.543.514-.814 1.163-.814 1.948 0 .77.264 1.415.792 1.936.528.52 1.217.781 2.065.781h.022c.878 0 1.585-.26 2.12-.781.536-.52.804-1.166.804-1.936zM23.84 29.12h5.157v-9.01c0-2.325-.544-4.084-1.63-5.277-1.086-1.192-2.522-1.789-4.308-1.789-2.024 0-3.579.884-4.665 2.65h.044v-2.287h-5.156c.045.996.045 6.235 0 15.715h5.156v-8.786c0-.574.053-.996.157-1.268a3.491 3.491 0 0 1 1.004-1.347c.447-.37.997-.555 1.652-.555 1.726 0 2.59 1.185 2.59 3.555v8.401zm10.447-22.6v21.74c0 1.796-.629 3.332-1.886 4.608-1.258 1.276-2.772 1.914-4.543 1.914H6.43c-1.771 0-3.285-.638-4.543-1.914C.63 31.593 0 30.057 0 28.261V6.52c0-1.794.629-3.33 1.886-4.606C3.144.638 4.658 0 6.43 0h21.428c1.771 0 3.285.638 4.543 1.913 1.257 1.276 1.886 2.812 1.886 4.609z"/></svg>