<svg xmlns="http://www.w3.org/2000/svg" width="40" height="32" viewBox="0 0 40 32"><path fill="#0A213C" fill-rule="evenodd" d="M40 10.295v17.98c0 .997-.35 1.85-1.05 2.56-.699.709-1.54 1.064-2.521 1.064H3.57c-.982 0-1.822-.355-2.522-1.065A3.514 3.514 0 0 1 0 28.275v-17.98c.655.74 1.406 1.397 2.254 1.97 5.387 3.714 9.085 6.318 11.094 7.813a52.821 52.821 0 0 0 2.065 1.483c.528.355 1.231.717 2.11 1.087.877.37 1.696.555 2.455.555h.044c.76 0 1.578-.185 2.456-.555.878-.37 1.58-.732 2.11-1.087a53.976 53.976 0 0 0 2.064-1.483c2.53-1.857 6.235-4.461 11.116-7.813A12.366 12.366 0 0 0 40 10.295zm0-6.657c0 1.192-.365 2.332-1.094 3.42a10.693 10.693 0 0 1-2.723 2.784c-5.595 3.94-9.077 6.394-10.446 7.36-.15.106-.465.336-.95.69-.483.355-.884.642-1.204.861-.32.22-.707.464-1.161.736a6.718 6.718 0 0 1-1.284.612 3.502 3.502 0 0 1-1.116.203h-.044c-.343 0-.715-.068-1.116-.203a6.718 6.718 0 0 1-1.284-.612c-.454-.272-.84-.517-1.16-.736a49.19 49.19 0 0 1-1.206-.86c-.484-.355-.8-.585-.949-.691a1092.2 1092.2 0 0 0-5.848-4.133A1029.12 1029.12 0 0 1 3.84 9.842c-.922-.634-1.793-1.505-2.611-2.615C.409 6.117 0 5.087 0 4.136c0-1.178.309-2.159.926-2.944C1.544.407 2.426.014 3.571.014H36.43c.967 0 1.804.355 2.51 1.065A3.49 3.49 0 0 1 40 3.638z"/></svg>