<svg xmlns="http://www.w3.org/2000/svg" width="113" height="168" viewBox="0 0 113 168">
  <g fill="none" fill-rule="evenodd">
    <path fill="#0A213C" d="M13.5077669,134.175293 L40.0554102,150.09375 L40.937487,155.103516 L56.1505534,164.39209 L72.6076497,157.292725 L72.6076497,150.09375 L101.323333,132.708252 L102.259115,110.458008 L104.58459,108.760254 L105.982376,95.4367676 L110.726758,93.2753906 L110.726758,78.5983887 L101.323333,74.0866699 L102.259115,53.7407227 L88.2135677,29.619873 L76.8480924,13.8947754 L67.0952214,3.5090332 L62.1172624,3.5090332 C59.7285189,7.22680664 58.5341471,9.36743164 58.5341471,9.9309082 C58.5341471,10.4943848 55.662309,14.1884766 49.9186328,21.0131836 L30.2377995,38.5620117 L11.5192318,52.3652344 L11.5192318,75.0454102 L2.77423828,78.5983887 L2.77423828,93.2753906 L7.11031901,95.4367676 L8.29917318,108.760254 L11.5192318,110.458008 L11.5192318,131.644775 L13.5077669,134.175293 Z"/>
    <g fill="#FFF" fill-rule="nonzero">
      <polygon points="68.763 100.5 95.65 100.5 96.427 87 66.293 87"/>
      <polygon points="17.347 100.5 44.238 100.5 46.707 87 16.573 87"/>
      <path d="M109.199485,75.0756373 L109.289069,73.4228258 L103.975009,73.4228258 L103.975009,52.3528537 L103.3104,51.1614601 C74.8729065,0 66.6935685,0 64.0088658,0 C61.2941455,0 58.0559925,1.69475862 57.1062156,6.45936878 C55.3544049,15.2615063 29.2334295,36.7991643 11.2467656,49.2801093 L9.03202656,50.818169 L9.03202656,73.4228258 L3.69498392,73.4228258 L3.79441735,75.0756373 L0,75.0756373 L0,96.6446351 L5.01998132,96.6446351 L5.8942451,112.045483 L9.03155754,112.045483 L9.03155754,134.564799 L37.9066514,151.699942 L37.9066514,156.965506 L56.5053938,168 L75.1088264,156.965506 L75.1088264,151.699942 L103.981575,134.564799 L103.981575,112.045483 L107.106224,112.045483 L107.979081,96.6446351 L113,96.6446351 L113,75.0756373 L109.199485,75.0756373 Z M14.0632645,53.5698013 C14.0632645,53.5698013 59.0840967,22.3414027 62.0403653,7.49599212 C65.000386,-7.33640035 98.9400187,53.7269823 98.9400187,53.7269823 L98.9400187,73.4975591 L90.9956626,73.4975591 L90.9956626,58.1159973 L56.5119602,37.6347309 L22.0212224,58.1159973 L22.0094967,73.4946662 L14.0632645,73.4946662 L14.0632645,53.5698013 Z M98.9479921,131.577877 L70.0738363,148.714467 L70.0738363,153.978584 L56.5053938,162.02471 L42.9407035,153.978584 L42.9407035,148.71302 L14.0632645,131.577877 L14.0632645,111.47076 L22.0212224,111.47076 L22.0212224,126.859071 L42.9407035,139.273962 L42.9407035,137.872351 L56.5053938,129.82285 L70.0738363,137.872351 L70.0738363,139.276373 L90.9956626,126.859071 L90.9956626,111.47076 L98.9479921,111.47076 L98.9475231,131.577877 L98.9479921,131.577877 Z M42.7723233,124.985435 C43.2300924,123.277658 43.681295,121.565542 44.1409401,119.856319 C52.2381986,122.133033 60.7805624,122.133033 68.8689094,119.856319 C69.3285545,121.565542 69.7877306,123.277658 70.2440926,124.985435 C61.2542783,127.514314 51.7616686,127.514314 42.7723233,124.985435 Z M107.967824,91.4701971 L103.232541,91.4701971 L102.358746,106.872491 L62.5272139,106.872491 L59.1328754,88.0724833 L53.8704078,88.0724833 L50.4760693,106.872491 L10.6421916,106.872491 L9.76933486,91.4701971 L5.03545917,91.4701971 L5.03545917,80.2520039 L9.14177856,80.2520039 L9.04328318,78.5977459 L55.5893867,78.5977459 L55.1944672,80.803584 L57.8210107,80.803584 L57.424684,78.5977459 L103.965628,78.5977459 L103.876513,80.2520039 L107.968762,80.2520039 L107.968762,91.4701971 L107.967824,91.4701971 Z"/>
    </g>
  </g>
</svg>
