<svg xmlns="http://www.w3.org/2000/svg" width="116" height="26" viewBox="0 0 116 26">
  <g fill="#FFF" fill-rule="evenodd">
    <path d="M18.6825015,23.1611833 L0.0794109572,23.1611833 L23.1611833,0.0794109572 L23.1611833,18.6825015 L25.7204301,18.6825015 L25.7204301,23.1611833 L23.1611833,23.1611833 L23.1611833,25.7204301 L18.6825015,25.7204301 L18.6825015,23.1611833 Z M10.8919054,18.6825015 L18.6825015,18.6825015 L18.6825015,10.8919054 L10.8919054,18.6825015 Z"/>
    <polygon points="0 19.877 0 0 19.877 0 15.376 4.501 4.501 4.501 4.501 15.376"/>
    <polygon points="13.045 6.832 6.832 13.045 6.832 6.832 13.045 6.832" opacity=".495"/>
    <path d="M41.56,9.616 C41.3146654,9.31733184 41.0133351,9.0880008 40.656,8.928 C40.2986649,8.7679992 39.8853357,8.688 39.416,8.688 C38.9466643,8.688 38.512002,8.77866576 38.112,8.96 C37.711998,9.14133424 37.3653348,9.39466504 37.072,9.72 C36.7786652,10.045335 36.5493342,10.4319978 36.384,10.88 C36.2186658,11.3280022 36.136,11.8133307 36.136,12.336 C36.136,12.869336 36.2186658,13.3573311 36.384,13.8 C36.5493342,14.2426689 36.7759986,14.626665 37.064,14.952 C37.3520014,15.277335 37.6906647,15.5306658 38.08,15.712 C38.4693353,15.8933342 38.8879978,15.984 39.336,15.984 C39.8480026,15.984 40.3013314,15.8773344 40.696,15.664 C41.0906686,15.4506656 41.4159987,15.1520019 41.672,14.768 L43.752,16.32 C43.2719976,16.9920034 42.6640037,17.4879984 41.928,17.808 C41.1919963,18.1280016 40.4346706,18.288 39.656,18.288 C38.7706622,18.288 37.9546704,18.1493347 37.208,17.872 C36.4613296,17.5946653 35.8160027,17.1973359 35.272,16.68 C34.7279973,16.1626641 34.3040015,15.5360037 34,14.8 C33.6959985,14.0639963 33.544,13.2426712 33.544,12.336 C33.544,11.4293288 33.6959985,10.6080037 34,9.872 C34.3040015,9.13599632 34.7279973,8.50933592 35.272,7.992 C35.8160027,7.47466408 36.4613296,7.07733472 37.208,6.8 C37.9546704,6.52266528 38.7706622,6.384 39.656,6.384 C39.9760016,6.384 40.3093316,6.41333304 40.656,6.472 C41.0026684,6.53066696 41.3439983,6.62399936 41.68,6.752 C42.0160017,6.88000064 42.3386651,7.0506656 42.648,7.264 C42.9573349,7.4773344 43.2346654,7.73866512 43.48,8.048 L41.56,9.616 Z M46.8844835,5.904 L46.8844835,11.28 L46.9164835,11.28 C46.9698171,11.1306659 47.0604829,10.9813341 47.1884835,10.832 C47.3164842,10.6826659 47.4711493,10.5493339 47.6524835,10.432 C47.8338178,10.3146661 48.047149,10.218667 48.2924835,10.144 C48.5378181,10.069333 48.8044821,10.032 49.0924835,10.032 C49.7004866,10.032 50.1911483,10.1253324 50.5644835,10.312 C50.9378187,10.4986676 51.2284825,10.7573317 51.4364835,11.088 C51.6444846,11.4186683 51.7858165,11.8079978 51.8604835,12.256 C51.9351506,12.7040022 51.9724835,13.1893307 51.9724835,13.712 L51.9724835,18 L49.5724835,18 L49.5724835,14.192 C49.5724835,13.9679989 49.5644836,13.7360012 49.5484835,13.496 C49.5324834,13.2559988 49.4844839,13.0346677 49.4044835,12.832 C49.3244831,12.6293323 49.2018177,12.4640006 49.0364835,12.336 C48.8711494,12.2079994 48.6338184,12.144 48.3244835,12.144 C48.0151486,12.144 47.7644845,12.1999994 47.5724835,12.312 C47.3804826,12.4240006 47.2338174,12.5733324 47.1324835,12.76 C47.0311497,12.9466676 46.9644837,13.1573322 46.9324835,13.392 C46.9004834,13.6266678 46.8844835,13.8719987 46.8844835,14.128 L46.8844835,18 L44.4844835,18 L44.4844835,5.904 L46.8844835,5.904 Z M58.224967,17.024 L58.192967,17.024 C57.926299,17.4400021 57.5716359,17.7386658 57.128967,17.92 C56.6862981,18.1013342 56.2196361,18.192 55.728967,18.192 C55.3662985,18.192 55.0169687,18.1413338 54.680967,18.04 C54.3449653,17.9386662 54.0489683,17.7866677 53.792967,17.584 C53.5369657,17.3813323 53.3343011,17.1306682 53.184967,16.832 C53.0356329,16.5333318 52.960967,16.1866686 52.960967,15.792 C52.960967,15.3439978 53.0436329,14.9653349 53.208967,14.656 C53.3743012,14.3466651 53.5982989,14.0906677 53.880967,13.888 C54.1636351,13.6853323 54.4862985,13.5280006 54.848967,13.416 C55.2116355,13.3039994 55.5876317,13.2213336 55.976967,13.168 C56.3663023,13.1146664 56.7556317,13.0826667 57.144967,13.072 C57.5343023,13.0613333 57.8942987,13.056 58.224967,13.056 C58.224967,12.6293312 58.0729685,12.2906679 57.768967,12.04 C57.4649655,11.7893321 57.1049691,11.664 56.688967,11.664 C56.2942984,11.664 55.934302,11.7466658 55.608967,11.912 C55.2836321,12.0773342 54.9929683,12.3039986 54.736967,12.592 L53.456967,11.28 C53.9049693,10.8639979 54.4276307,10.552001 55.024967,10.344 C55.6223033,10.135999 56.2409638,10.032 56.880967,10.032 C57.5849705,10.032 58.1636314,10.1199991 58.616967,10.296 C59.0703026,10.4720009 59.4329657,10.730665 59.704967,11.072 C59.9769684,11.413335 60.1662998,11.8319975 60.272967,12.328 C60.3796342,12.8240025 60.432967,13.3973301 60.432967,14.048 L60.432967,18 L58.224967,18 L58.224967,17.024 Z M57.632967,14.592 C57.4516328,14.592 57.2249684,14.5999999 56.952967,14.616 C56.6809657,14.6320001 56.4196349,14.677333 56.168967,14.752 C55.9182991,14.826667 55.7049679,14.9386659 55.528967,15.088 C55.3529661,15.2373341 55.264967,15.445332 55.264967,15.712 C55.264967,16.0000014 55.3876325,16.2133326 55.632967,16.352 C55.8783016,16.4906674 56.134299,16.56 56.400967,16.56 C56.6356349,16.56 56.8622993,16.5280003 57.080967,16.464 C57.2996348,16.3999997 57.4942995,16.3093339 57.664967,16.192 C57.8356345,16.0746661 57.9716332,15.9253342 58.072967,15.744 C58.1743009,15.5626658 58.224967,15.3493346 58.224967,15.104 L58.224967,14.592 L57.632967,14.592 Z M61.6134505,10.224 L64.0134505,10.224 L64.0134505,11.472 L64.0454505,11.472 C64.3014518,10.9919976 64.6054488,10.6320012 64.9574505,10.392 C65.3094523,10.1519988 65.7521145,10.032 66.2854505,10.032 C66.4241179,10.032 66.5627832,10.0373333 66.7014505,10.048 C66.8401179,10.0586667 66.9681166,10.0799998 67.0854505,10.112 L67.0854505,12.304 C66.914783,12.2506664 66.7467847,12.2106668 66.5814505,12.184 C66.4161164,12.1573332 66.2427848,12.144 66.0614505,12.144 C65.6027816,12.144 65.2401185,12.2079994 64.9734505,12.336 C64.7067825,12.4640006 64.5014513,12.6426655 64.3574505,12.872 C64.2134498,13.1013345 64.1201174,13.3759984 64.0774505,13.696 C64.0347837,14.0160016 64.0134505,14.3679981 64.0134505,14.752 L64.0134505,18 L61.6134505,18 L61.6134505,10.224 Z M67.833934,5.904 L70.233934,5.904 L70.233934,18 L67.833934,18 L67.833934,5.904 Z M71.6704176,10.224 L74.0704176,10.224 L74.0704176,18 L71.6704176,18 L71.6704176,10.224 Z M71.4784176,7.776 C71.4784176,7.39199808 71.6144162,7.06400136 71.8864176,6.792 C72.1584189,6.51999864 72.4864156,6.384 72.8704176,6.384 C73.2544195,6.384 73.5824162,6.51999864 73.8544176,6.792 C74.1264189,7.06400136 74.2624176,7.39199808 74.2624176,7.776 C74.2624176,8.16000192 74.1264189,8.48799864 73.8544176,8.76 C73.5824162,9.03200136 73.2544195,9.168 72.8704176,9.168 C72.4864156,9.168 72.1584189,9.03200136 71.8864176,8.76 C71.6144162,8.48799864 71.4784176,8.16000192 71.4784176,7.776 Z M82.8349011,16.656 C82.4508992,17.1466691 81.9655707,17.525332 81.3789011,17.792 C80.7922315,18.058668 80.1842376,18.192 79.5549011,18.192 C78.9575648,18.192 78.3949037,18.096001 77.8669011,17.904 C77.3388984,17.711999 76.8802364,17.4373351 76.4909011,17.08 C76.1015658,16.7226649 75.7949022,16.2933358 75.5709011,15.792 C75.3469,15.2906642 75.2349011,14.7306698 75.2349011,14.112 C75.2349011,13.4933302 75.3469,12.9333358 75.5709011,12.432 C75.7949022,11.9306642 76.1015658,11.5013351 76.4909011,11.144 C76.8802364,10.7866649 77.3388984,10.512001 77.8669011,10.32 C78.3949037,10.127999 78.9575648,10.032 79.5549011,10.032 C80.1095705,10.032 80.6135655,10.127999 81.0669011,10.32 C81.5202367,10.512001 81.9042328,10.7866649 82.2189011,11.144 C82.5335693,11.5013351 82.7762336,11.9306642 82.9469011,12.432 C83.1175686,12.9333358 83.2029011,13.4933302 83.2029011,14.112 L83.2029011,14.864 L77.6349011,14.864 C77.7309016,15.322669 77.9388995,15.6879986 78.2589011,15.96 C78.5789027,16.2320014 78.9735654,16.368 79.4429011,16.368 C79.8375697,16.368 80.1708997,16.2800009 80.4429011,16.104 C80.7149024,15.9279991 80.9522334,15.7013347 81.1549011,15.424 L82.8349011,16.656 Z M80.8029011,13.232 C80.8135678,12.8266646 80.6802358,12.4800014 80.4029011,12.192 C80.1255664,11.9039986 79.7682366,11.76 79.3309011,11.76 C79.0642331,11.76 78.8295688,11.8026662 78.6269011,11.888 C78.4242334,11.9733338 78.2509018,12.082666 78.1069011,12.216 C77.9629004,12.349334 77.8509015,12.5039991 77.7709011,12.68 C77.6909007,12.8560009 77.6455678,13.039999 77.6349011,13.232 L80.8029011,13.232 Z M89.1478681,6.672 L96.7478681,6.672 L96.7478681,8.976 L91.6438681,8.976 L91.6438681,11.28 L96.3638681,11.28 L96.3638681,13.584 L91.6438681,13.584 L91.6438681,18 L89.1478681,18 L89.1478681,6.672 Z M97.6243516,14.112 C97.6243516,13.4933302 97.7363505,12.9333358 97.9603516,12.432 C98.1843527,11.9306642 98.4910163,11.5013351 98.8803516,11.144 C99.2696869,10.7866649 99.728349,10.512001 100.256352,10.32 C100.784354,10.127999 101.347015,10.032 101.944352,10.032 C102.541688,10.032 103.104349,10.127999 103.632352,10.32 C104.160354,10.512001 104.619016,10.7866649 105.008352,11.144 C105.397687,11.5013351 105.70435,11.9306642 105.928352,12.432 C106.152353,12.9333358 106.264352,13.4933302 106.264352,14.112 C106.264352,14.7306698 106.152353,15.2906642 105.928352,15.792 C105.70435,16.2933358 105.397687,16.7226649 105.008352,17.08 C104.619016,17.4373351 104.160354,17.711999 103.632352,17.904 C103.104349,18.096001 102.541688,18.192 101.944352,18.192 C101.347015,18.192 100.784354,18.096001 100.256352,17.904 C99.728349,17.711999 99.2696869,17.4373351 98.8803516,17.08 C98.4910163,16.7226649 98.1843527,16.2933358 97.9603516,15.792 C97.7363505,15.2906642 97.6243516,14.7306698 97.6243516,14.112 Z M100.024352,14.112 C100.024352,14.6986696 100.19235,15.1733315 100.528352,15.536 C100.864353,15.8986685 101.336349,16.08 101.944352,16.08 C102.552355,16.08 103.02435,15.8986685 103.360352,15.536 C103.696353,15.1733315 103.864352,14.6986696 103.864352,14.112 C103.864352,13.5253304 103.696353,13.0506685 103.360352,12.688 C103.02435,12.3253315 102.552355,12.144 101.944352,12.144 C101.336349,12.144 100.864353,12.3253315 100.528352,12.688 C100.19235,13.0506685 100.024352,13.5253304 100.024352,14.112 Z M109.444835,13.84 L106.852835,10.224 L109.684835,10.224 L111.060835,12.336 L112.388835,10.224 L115.060835,10.224 L112.532835,13.84 L115.524835,18 L112.692835,18 L110.996835,15.408 L109.172835,18 L106.372835,18 L109.444835,13.84 Z"/>
  </g>
</svg>
