<svg xmlns="http://www.w3.org/2000/svg" width="129" height="26" viewBox="0 0 129 26">
  <g fill="#FFF" fill-rule="evenodd">
    <path d="M18.6825015,23.1611833 L0.0794109572,23.1611833 L23.1611833,0.0794109572 L23.1611833,18.6825015 L25.7204301,18.6825015 L25.7204301,23.1611833 L23.1611833,23.1611833 L23.1611833,25.7204301 L18.6825015,25.7204301 L18.6825015,23.1611833 Z M10.8919054,18.6825015 L18.6825015,18.6825015 L18.6825015,10.8919054 L10.8919054,18.6825015 Z"/>
    <polygon points="0 19.877 0 0 19.877 0 15.376 4.501 4.501 4.501 4.501 15.376"/>
    <polygon points="13.045 6.832 6.832 13.045 6.832 6.832 13.045 6.832" opacity=".495"/>
    <path d="M41.42,11.712 C41.2359991,11.4879989 41.0100013,11.3160006 40.742,11.196 C40.4739987,11.0759994 40.1640018,11.016 39.812,11.016 C39.4599982,11.016 39.1340015,11.0839993 38.834,11.22 C38.5339985,11.3560007 38.2740011,11.5459988 38.054,11.79 C37.8339989,12.0340012 37.6620006,12.3239983 37.538,12.66 C37.4139994,12.9960017 37.352,13.359998 37.352,13.752 C37.352,14.152002 37.4139994,14.5179983 37.538,14.85 C37.6620006,15.1820017 37.8319989,15.4699988 38.048,15.714 C38.2640011,15.9580012 38.5179985,16.1479993 38.81,16.284 C39.1020015,16.4200007 39.4159983,16.488 39.752,16.488 C40.1360019,16.488 40.4759985,16.4080008 40.772,16.248 C41.0680015,16.0879992 41.311999,15.8640014 41.504,15.576 L43.064,16.74 C42.7039982,17.2440025 42.2480028,17.6159988 41.696,17.856 C41.1439972,18.0960012 40.5760029,18.216 39.992,18.216 C39.3279967,18.216 38.7160028,18.112001 38.156,17.904 C37.5959972,17.695999 37.112002,17.3980019 36.704,17.01 C36.295998,16.6219981 35.9780011,16.1520028 35.75,15.6 C35.5219989,15.0479972 35.408,14.4320034 35.408,13.752 C35.408,13.0719966 35.5219989,12.4560028 35.75,11.904 C35.9780011,11.3519972 36.295998,10.8820019 36.704,10.494 C37.112002,10.1059981 37.5959972,9.80800104 38.156,9.6 C38.7160028,9.39199896 39.3279967,9.288 39.992,9.288 C40.2320012,9.288 40.4819987,9.30999978 40.742,9.354 C41.0020013,9.39800022 41.2579987,9.46799952 41.51,9.564 C41.7620013,9.66000048 42.0039988,9.7879992 42.236,9.948 C42.4680012,10.1080008 42.6759991,10.3039988 42.86,10.536 L41.42,11.712 Z M45.384,9.504 L47.256,9.504 L47.256,12.672 L50.892,12.672 L50.892,9.504 L52.764,9.504 L52.764,18 L50.892,18 L50.892,14.328 L47.256,14.328 L47.256,18 L45.384,18 L45.384,9.504 Z M58.5879999,9.504 L60.1359999,9.504 L63.8319999,18 L61.7199999,18 L60.9879999,16.2 L57.6879999,16.2 L56.9799999,18 L54.9159999,18 L58.5879999,9.504 Z M59.3079999,11.976 L58.2759999,14.616 L60.3519999,14.616 L59.3079999,11.976 Z M65.9839999,9.504 L69.2719999,9.504 C69.704002,9.504 70.1139979,9.54599958 70.5019999,9.63 C70.8900018,9.71400042 71.2299984,9.85399902 71.5219999,10.05 C71.8140013,10.246001 72.045999,10.5099983 72.2179999,10.842 C72.3900007,11.1740017 72.4759999,11.5879975 72.4759999,12.084 C72.4759999,12.684003 72.3200014,13.1939979 72.0079999,13.614 C71.6959983,14.0340021 71.2400029,14.2999994 70.6399999,14.412 L72.7999999,18 L70.5559999,18 L68.7799999,14.604 L67.8559999,14.604 L67.8559999,18 L65.9839999,18 L65.9839999,9.504 Z M67.8559999,13.02 L68.9599999,13.02 C69.1280007,13.02 69.3059989,13.0140001 69.4939999,13.002 C69.6820008,12.9899999 69.8519991,12.9540003 70.0039999,12.894 C70.1560006,12.8339997 70.2819994,12.7400006 70.3819999,12.612 C70.4820004,12.4839994 70.5319999,12.3040012 70.5319999,12.072 C70.5319999,11.8559989 70.4880003,11.6840006 70.3999999,11.556 C70.3119994,11.4279994 70.2000005,11.3300003 70.0639999,11.262 C69.9279992,11.1939997 69.7720007,11.1480001 69.5959999,11.124 C69.419999,11.0999999 69.2480007,11.088 69.0799999,11.088 L67.8559999,11.088 L67.8559999,13.02 Z M75.1319998,9.504 L77.0039998,9.504 L77.0039998,16.272 L80.4719998,16.272 L80.4719998,18 L75.1319998,18 L75.1319998,9.504 Z M82.7799998,9.504 L84.6519998,9.504 L84.6519998,18 L82.7799998,18 L82.7799998,9.504 Z M87.7279997,9.504 L93.4999997,9.504 L93.4999997,11.232 L89.5999997,11.232 L89.5999997,12.816 L93.2839997,12.816 L93.2839997,14.544 L89.5999997,14.544 L89.5999997,16.272 L93.7159997,16.272 L93.7159997,18 L87.7279997,18 L87.7279997,9.504 Z M101.44,9.504 L107.14,9.504 L107.14,11.232 L103.312,11.232 L103.312,12.96 L106.852,12.96 L106.852,14.688 L103.312,14.688 L103.312,18 L101.44,18 L101.44,9.504 Z M109.328,13.752 C109.328,13.0719966 109.441998,12.4560028 109.67,11.904 C109.898001,11.3519972 110.215998,10.8820019 110.624,10.494 C111.032002,10.1059981 111.515997,9.80800104 112.076,9.6 C112.636002,9.39199896 113.247996,9.288 113.912,9.288 C114.576003,9.288 115.187997,9.39199896 115.748,9.6 C116.308002,9.80800104 116.791998,10.1059981 117.2,10.494 C117.608002,10.8820019 117.925998,11.3519972 118.154,11.904 C118.382001,12.4560028 118.496,13.0719966 118.496,13.752 C118.496,14.4320034 118.382001,15.0479972 118.154,15.6 C117.925998,16.1520028 117.608002,16.6219981 117.2,17.01 C116.791998,17.3980019 116.308002,17.695999 115.748,17.904 C115.187997,18.112001 114.576003,18.216 113.912,18.216 C113.247996,18.216 112.636002,18.112001 112.076,17.904 C111.515997,17.695999 111.032002,17.3980019 110.624,17.01 C110.215998,16.6219981 109.898001,16.1520028 109.67,15.6 C109.441998,15.0479972 109.328,14.4320034 109.328,13.752 Z M111.272,13.752 C111.272,14.152002 111.333999,14.5179983 111.458,14.85 C111.582,15.1820017 111.759998,15.4699988 111.992,15.714 C112.224001,15.9580012 112.501998,16.1479993 112.826,16.284 C113.150001,16.4200007 113.511998,16.488 113.912,16.488 C114.312002,16.488 114.673998,16.4200007 114.998,16.284 C115.322001,16.1479993 115.599998,15.9580012 115.832,15.714 C116.064001,15.4699988 116.241999,15.1820017 116.366,14.85 C116.49,14.5179983 116.552,14.152002 116.552,13.752 C116.552,13.359998 116.49,12.9960017 116.366,12.66 C116.241999,12.3239983 116.064001,12.0340012 115.832,11.79 C115.599998,11.5459988 115.322001,11.3560007 114.998,11.22 C114.673998,11.0839993 114.312002,11.016 113.912,11.016 C113.511998,11.016 113.150001,11.0839993 112.826,11.22 C112.501998,11.3560007 112.224001,11.5459988 111.992,11.79 C111.759998,12.0340012 111.582,12.3239983 111.458,12.66 C111.333999,12.9960017 111.272,13.359998 111.272,13.752 Z M123.18,13.56 L120.372,9.504 L122.724,9.504 L124.536,12.48 L126.276,9.504 L128.544,9.504 L125.796,13.524 L128.868,18 L126.516,18 L124.44,14.58 L122.424,18 L120.204,18 L123.18,13.56 Z"/>
  </g>
</svg>
