<svg xmlns="http://www.w3.org/2000/svg" width="35" height="35" viewBox="0 0 35 35">
  <path fill="#0A213C" fill-rule="evenodd" d="M8.526785,2.29912873 C5.907725,3.85408743 3.831853,5.96381641 2.299107,8.6283867 C0.7663615,11.2929519 0,14.2027961 0,17.3580055 C0,21.1472729 1.090019,24.5553041 3.2700895,27.5821903 C5.45016,30.6090761 8.26635,32.7037109 11.71875,33.8661563 C12.12054,33.9416398 12.418155,33.8888021 12.611605,33.7076418 C12.80506,33.5264815 12.901785,33.3000343 12.901785,33.0282938 C12.901785,32.9679071 12.898065,32.5565283 12.890625,31.7941456 C12.883185,31.0317624 12.879465,30.3637438 12.879465,29.7900695 L12.36607,29.8806489 C12.03869,29.9410356 11.625745,29.9674545 11.12723,29.9599062 C10.62872,29.9523579 10.11161,29.89952 9.575895,29.8013917 C9.040175,29.7032634 8.54167,29.4768164 8.080355,29.1220437 C7.619045,28.76727 7.29167,28.3030534 7.098215,27.7293831 L6.875,27.2085476 C6.72619,26.8613222 6.491815,26.4763628 6.171875,26.0536541 C5.851935,25.6309505 5.528275,25.3441179 5.200895,25.1931512 L5.044645,25.0799237 C4.9404755,25.0044403 4.8437505,24.9138613 4.7544645,24.8081867 C4.665178,24.702507 4.5982145,24.5968324 4.5535715,24.4911577 C4.5089285,24.385478 4.5461305,24.2986729 4.6651785,24.2307374 C4.784227,24.162807 4.9999985,24.1288367 5.3125,24.1288367 L5.75893,24.1967722 C6.05655,24.2571599 6.42485,24.4383179 6.86384,24.7402512 C7.30283,25.0421845 7.66369,25.4346918 7.94643,25.9177882 C8.28869,26.5367505 8.701635,27.008515 9.18527,27.3330968 C9.6689,27.6576737 10.15625,27.8199621 10.64732,27.8199621 C11.138395,27.8199621 11.5625,27.7822179 11.919645,27.7067345 C12.276785,27.6312512 12.611605,27.5180287 12.924105,27.3670621 C13.072915,26.3555824 13.437495,25.5781157 14.017855,25.0346367 C13.16964,24.9440526 12.406995,24.8081867 11.72991,24.6270237 C11.052825,24.4458657 10.353425,24.1514853 9.631695,23.7438722 C8.909965,23.3362642 8.311015,22.8305295 7.83482,22.2266628 C7.35863,21.6227961 6.968005,20.8302287 6.662945,19.8489454 C6.357885,18.8676621 6.205355,17.7354273 6.205355,16.4522055 C6.205355,14.6557012 6.79315,13.1007628 7.96875,11.7873497 C7.41815,10.4135541 7.477675,8.87371134 8.14732,7.16778598 C8.56399,7.03191496 9.196425,7.13381569 10.044645,7.47349322 C10.89286,7.81317076 11.514135,8.10377728 11.90848,8.34532293 C12.30283,8.58686859 12.619045,8.79067004 12.857145,8.95673743 C14.24108,8.56422004 15.669635,8.36796641 17.142855,8.36796641 C18.61608,8.36796641 20.044635,8.56422004 21.42857,8.95673743 L22.276785,8.41325844 C22.857145,8.05093743 23.541665,7.71881279 24.330355,7.41687946 C25.11905,7.11494612 25.721725,7.03191496 26.138395,7.16778598 C26.80804,8.87371134 26.86756,10.4135541 26.316965,11.7873497 C27.492565,13.1007628 28.080355,14.6557012 28.080355,16.4522055 C28.080355,17.7354273 27.92783,18.871436 27.62277,19.8602671 C27.317705,20.8491034 26.923365,21.6416657 26.43973,22.2379845 C25.9561,22.8343034 25.353425,23.3362642 24.631695,23.7438722 C23.909965,24.1514853 23.21057,24.4458657 22.53348,24.6270237 C21.856395,24.8081867 21.093755,24.9440526 20.245535,25.0346367 C21.01935,25.7139867 21.40625,26.7858338 21.40625,28.2502135 C21.40625,29.1711127 21.40253,30.1863501 21.39509,31.2959571 C21.38765,32.4055642 21.38393,32.9830038 21.38393,33.0282938 C21.38393,33.3000343 21.480655,33.5264815 21.674105,33.7076418 C21.86756,33.8888021 22.165175,33.9416398 22.566965,33.8661563 C26.01936,32.7037109 28.835555,30.6090761 31.015625,27.5821903 C33.195695,24.5553041 34.285715,21.1472729 34.285715,17.3580055 C34.285715,14.2027961 33.519355,11.2929519 31.986605,8.6283867 C30.45386,5.96381641 28.37427,3.85408743 25.74777,2.29912873 C23.121265,0.744170036 20.25299,-0.0333017028 17.142855,-0.0333017028 C14.032725,-0.0333017028 11.160725,0.744170036 8.526785,2.29912873 Z M6.495535,24.9440526 C6.54018,24.838378 6.488095,24.747799 6.339285,24.6723157 C6.190475,24.6270237 6.09375,24.6421244 6.049105,24.7176077 C6.004465,24.8232824 6.056545,24.9138613 6.205355,24.9893447 C6.339285,25.0799237 6.43601,25.064828 6.495535,24.9440526 Z M7.1875,25.7139816 C7.291665,25.6384983 7.276785,25.517728 7.142855,25.3516657 C6.994045,25.2157947 6.875,25.1931461 6.785715,25.2837302 C6.681545,25.3592135 6.69643,25.4799838 6.830355,25.6460461 C6.979165,25.7970128 7.098215,25.8196613 7.1875,25.7139816 Z M7.857145,26.7330041 C7.99107,26.6273295 7.99107,26.4839106 7.857145,26.3027526 C7.738095,26.1064939 7.61161,26.0612019 7.47768,26.1668816 C7.34375,26.242365 7.34375,26.3782309 7.47768,26.5744896 C7.61161,26.7707483 7.738095,26.8235831 7.857145,26.7330041 Z M8.794645,27.6840911 C8.91369,27.5633157 8.88393,27.4199019 8.705355,27.2538396 C8.526785,27.0726766 8.377975,27.0500331 8.25893,27.1859041 C8.125,27.3066744 8.15476,27.4500932 8.348215,27.6161555 C8.526785,27.7973186 8.675595,27.8199621 8.794645,27.6840911 Z M10.066965,28.2502135 C10.111605,28.0841512 10.01488,27.9633809 9.776785,27.8878976 C9.55357,27.8275099 9.412205,27.8803447 9.35268,28.0464121 C9.293155,28.2124744 9.38988,28.3256968 9.642855,28.3860845 C9.866075,28.4766635 10.00744,28.4313766 10.066965,28.2502135 Z M11.473215,28.3634411 C11.473215,28.1671824 11.346725,28.0841512 11.09375,28.1143425 C10.855655,28.1143425 10.736605,28.1973737 10.736605,28.3634411 C10.736605,28.5596947 10.863095,28.6427258 11.11607,28.6125345 C11.35417,28.6125345 11.473215,28.5295034 11.473215,28.3634411 Z M12.767855,28.1369911 C12.738095,27.9709237 12.60417,27.9029932 12.36607,27.9331845 C12.127975,27.9784766 12.02381,28.091699 12.05357,28.272857 C12.083335,28.45402 12.21726,28.5144077 12.455355,28.45402 C12.693455,28.3936324 12.79762,28.2879577 12.767855,28.1369911 Z" transform="translate(0 1)"/>
</svg>
