<svg xmlns="http://www.w3.org/2000/svg" width="12" height="11" viewBox="0 0 12 11">
  <path fill="#D0026C" fill-rule="evenodd" d="M1231,4272 C1232.56251,4270.77083 1233.75,4269.72917 1234.5625,4268.875 C1235.38542,4268.01041 1235.97656,4267.27344 1236.33594,4266.66406 C1236.69531,4266.05468 1236.89583,4265.54688 1236.9375,4265.14062 C1236.97917,4264.72396 1237,4264.34375 1237,4264 C1237,4263.65625 1236.93229,4263.30729 1236.79688,4262.95312 C1236.66146,4262.59896 1236.46354,4262.27865 1236.20312,4261.99219 C1235.94271,4261.70573 1235.63021,4261.46875 1235.26562,4261.28125 C1234.89062,4261.09375 1234.46875,4261 1234,4261 C1233.53125,4261 1233.10938,4261.10417 1232.73438,4261.3125 C1232.36979,4261.52083 1232.05729,4261.75 1231.79688,4262 C1231.53646,4262.25 1231.33854,4262.47917 1231.20312,4262.6875 C1231.06771,4262.89583 1231,4263 1231,4263 C1231,4263 1230.93229,4262.89583 1230.79688,4262.6875 C1230.66146,4262.47917 1230.46354,4262.25 1230.20312,4262 C1229.94271,4261.75 1229.63021,4261.52083 1229.26562,4261.3125 C1228.89062,4261.10417 1228.46875,4261 1228,4261 C1227.53125,4261 1227.10938,4261.09375 1226.73438,4261.28125 C1226.36979,4261.46875 1226.05729,4261.70573 1225.79688,4261.99219 C1225.53646,4262.27865 1225.33854,4262.59896 1225.20312,4262.95312 C1225.06771,4263.30729 1225,4263.65625 1225,4264 C1225,4264.34375 1225.02083,4264.72396 1225.0625,4265.14062 C1225.10417,4265.54688 1225.30469,4266.05468 1225.66406,4266.66406 C1226.02344,4267.27344 1226.61458,4268.01041 1227.4375,4268.875 C1228.25,4269.72917 1229.43749,4270.77083 1231,4272 Z" transform="translate(-1225 -4261)"/>
</svg>
