<svg xmlns="http://www.w3.org/2000/svg" width="35" height="35" viewBox="0 0 35 35">
  <path fill="#0A213C" fill-rule="evenodd" d="M73.29018,29.1213797 L78.44643,29.1213797 L78.44643,13.4057964 L73.29018,13.4057964 L73.29018,29.1213797 Z M78.78125,8.55978261 C78.76637,7.7747529 78.498515,7.12560942 77.97768,6.61232174 C77.456845,6.09903406 76.764885,5.84239275 75.901785,5.84239275 C75.038685,5.84239275 74.33557,6.09903406 73.79241,6.61232174 C73.249255,7.12560942 72.9776785,7.7747529 72.9776785,8.55978261 C72.9776785,9.32971667 73.241815,9.97508623 73.77009,10.4959268 C74.298365,11.0167623 74.986605,11.2771725 75.83482,11.2771725 L75.857145,11.2771725 C76.735125,11.2771725 77.44196,11.0167623 77.97768,10.4959268 C78.513395,9.97508623 78.78125,9.32971667 78.78125,8.55978261 Z M91.839285,29.1213797 L96.995535,29.1213797 L96.995535,20.1086971 C96.995535,17.7838043 96.452385,16.0250696 95.36607,14.8324268 C94.279755,13.6397891 92.84376,13.0434804 91.058035,13.0434804 C89.034215,13.0434804 87.47917,13.9266217 86.392855,15.6929348 L86.4375,15.6929348 L86.4375,13.4057964 L81.28125,13.4057964 C81.325895,14.4021804 81.325895,19.6406558 81.28125,29.1213797 L86.4375,29.1213797 L86.4375,20.3351471 C86.4375,19.7614717 86.489585,19.3387681 86.59375,19.0670312 C86.816965,18.5386478 87.151785,18.0895268 87.598215,17.719658 C88.044645,17.3497891 88.595235,17.1648572 89.25,17.1648572 C90.9762,17.1648572 91.839285,18.3499268 91.839285,20.7201116 L91.839285,29.1213797 Z M102.285715,6.52173768 L102.285715,28.2608717 C102.285715,30.0573771 101.657,31.5934424 100.399555,32.8691133 C99.142105,34.1447836 97.627985,34.7826094 95.857145,34.7826094 L74.42857,34.7826094 C72.657729,34.7826094 71.1436075,34.1447836 69.8861605,32.8691133 C68.628714,31.5934424 68,30.0573771 68,28.2608717 L68,6.52173768 C68,4.72523333 68.628714,3.18916957 69.8861605,1.91349565 C71.1436075,0.637826812 72.657729,0 74.42857,0 L95.857145,0 C97.627985,0 99.142105,0.637826812 100.399555,1.91349565 C101.657,3.18916957 102.285715,4.72523333 102.285715,6.52173768 Z" transform="translate(-68)"/>
</svg>
