<svg xmlns="http://www.w3.org/2000/svg" width="40" height="32" viewBox="0 0 40 32">
  <path fill="#0A213C" fill-rule="evenodd" d="M176,11.2952862 L176,29.2753609 C176,30.2717425 175.6503,31.124693 174.950895,31.8342378 C174.251485,32.5437823 173.41072,32.8985493 172.42857,32.8985493 L139.571428,32.8985493 C138.589281,32.8985493 137.748515,32.5437823 137.049107,31.8342378 C136.349699,31.124693 136,30.2717425 136,29.2753609 L136,11.2952862 C136.654765,12.0350239 137.406246,12.6917203 138.254465,13.2653957 C143.641395,16.9791848 147.339275,19.5833268 149.348215,21.0778978 C150.196435,21.7119558 150.88467,22.2063688 151.412945,22.561142 C151.941225,22.9159101 152.64434,23.2782261 153.52232,23.6480949 C154.4003,24.0179638 155.218745,24.2028957 155.97768,24.2028957 L156,24.2028957 L156.02232,24.2028957 C156.781255,24.2028957 157.5997,24.0179638 158.47768,23.6480949 C159.35566,23.2782261 160.058775,22.9159101 160.587055,22.561142 C161.11533,22.2063688 161.803565,21.7119558 162.651785,21.0778978 C165.18156,19.2210058 168.88688,16.6168638 173.767855,13.2653957 C174.616075,12.6766246 175.360115,12.0199283 176,11.2952862 Z M176,4.63767754 C176,5.83032029 175.63542,6.9701029 174.90625,8.05706594 C174.17708,9.14402391 173.26935,10.0724572 172.183035,10.8423913 C166.58777,14.7826254 163.10566,17.2358007 161.736605,18.2019935 C161.587795,18.3076681 161.27158,18.537887 160.787945,18.8926601 C160.304315,19.2474333 159.90253,19.5342659 159.58259,19.7531681 C159.262645,19.9720703 158.875745,20.2173899 158.421875,20.4891268 C157.968005,20.7608688 157.54018,20.9646703 157.138395,21.1005413 C156.736605,21.2364123 156.364585,21.3043478 156.02232,21.3043478 L156,21.3043478 L155.97768,21.3043478 C155.635415,21.3043478 155.263395,21.2364123 154.861605,21.1005413 C154.45982,20.9646703 154.031995,20.7608688 153.578125,20.4891268 C153.124255,20.2173899 152.737355,19.9720703 152.41741,19.7531681 C152.09747,19.5342659 151.695685,19.2474333 151.212055,18.8926601 C150.72842,18.537887 150.412205,18.3076681 150.263395,18.2019935 C148.90922,17.2358007 146.959835,15.8582514 144.41518,14.0692899 C141.870525,12.2803333 140.34524,11.2047123 139.839285,10.8423913 C138.916662,10.2083283 138.046135,9.3365087 137.227678,8.22690217 C136.409222,7.11729565 136,6.08696159 136,5.13586957 C136,3.95832754 136.308777,2.97705435 136.92634,2.19202971 C137.543902,1.407 138.42559,1.01449275 139.571428,1.01449275 L172.42857,1.01449275 C173.39584,1.01449275 174.232885,1.3692558 174.93973,2.07880217 C175.64658,2.78834855 176,3.64129855 176,4.63767754 Z" transform="translate(-136 -1)"/>
</svg>
